<svg width="46" height="46" viewBox="0 0 46 46" fill="none" xmlns="http://www.w3.org/2000/svg">
<path fill-rule="evenodd" clip-rule="evenodd" d="M28.9885 27.7914L35 33.7683L33.7609 35L27.7362 29.0115C25.7018 30.679 23.0981 31.5011 20.4686 31.3063C17.839 31.1116 15.3867 29.9149 13.6234 27.9661C11.8601 26.0174 10.9221 23.467 11.0051 20.8473C11.088 18.2276 12.1856 15.7409 14.0687 13.9063C15.9519 12.0716 18.475 11.0306 21.1117 11.0007C23.7484 10.9707 26.2949 11.954 28.2197 13.7454C30.1445 15.5367 31.299 17.9978 31.4423 20.6149C31.5855 23.2321 30.7064 25.8031 28.9885 27.7914ZM29.7045 21.1668C29.7045 18.9325 28.8115 16.7898 27.2221 15.2099C25.6327 13.63 23.477 12.7425 21.2293 12.7425C18.9815 12.7425 16.8258 13.63 15.2364 15.2099C13.647 16.7898 12.7541 18.9325 12.7541 21.1668C12.7541 23.401 13.647 25.5438 15.2364 27.1236C16.8258 28.7035 18.9815 29.591 21.2293 29.591C23.477 29.591 25.6327 28.7035 27.2221 27.1236C28.8115 25.5438 29.7045 23.401 29.7045 21.1668Z" fill="black"/>
</svg>
