<svg width="46" height="46" viewBox="0 0 46 46" fill="none" xmlns="http://www.w3.org/2000/svg">
<path d="M16.9411 12C17.294 12 17.5761 12.2999 17.6467 12.6749L17.8771 14.9998H35.2939C35.7174 14.9998 36 15.3 36 15.75V23.25C36 23.625 35.7881 23.9247 35.4352 23.9997L18.8521 27.6702L17.9998 29.9999H33.1766L33.3209 30.0041C34.8074 30.0847 36 31.4017 36 33.0002C35.9999 34.65 34.7294 35.9999 33.1766 36C31.6238 36 30.3529 34.6501 30.3528 33.0002C30.3528 32.4546 30.4923 31.9418 30.7344 31.4998H18.6768C18.919 31.9419 19.0589 32.4545 19.0589 33.0002C19.0588 34.6501 17.7879 36 16.235 36C14.6822 36 13.4118 34.6501 13.4117 33.0002C13.4117 31.3502 14.6821 29.9999 16.235 29.9999C16.323 29.9999 16.4101 30.0045 16.496 30.0129L17.6467 26.9247L16.3059 13.4999H12V12H16.9411ZM16.235 31.4998C15.4586 31.4998 14.8234 32.1752 14.8234 33.0002C14.8235 33.8251 15.4587 34.5001 16.235 34.5001C17.0114 34.5001 17.6466 33.8251 17.6467 33.0002C17.6467 32.1752 17.0115 31.4998 16.235 31.4998ZM33.1766 31.4998C32.4002 31.4998 31.7645 32.1752 31.7645 33.0002C31.7646 33.8251 32.4002 34.5001 33.1766 34.5001C33.953 34.5 34.5882 33.825 34.5883 33.0002C34.5883 32.1753 33.953 31.4999 33.1766 31.4998ZM18.9752 26.0819L34.5883 22.65V16.4997H18.0259L18.9752 26.0819Z" fill="black"/>
</svg>
