<svg width="46" height="46" viewBox="0 0 46 46" fill="none" xmlns="http://www.w3.org/2000/svg">
<path d="M24 26.4C30.624 26.4 36 28.912 36 32V36H12V32C12 28.912 17.376 26.4 24 26.4ZM34.4 32C34.4 29.792 29.744 28 24 28C18.256 28 13.6 29.792 13.6 32V34.4H34.4V32ZM24 12C25.4852 12 26.9096 12.59 27.9598 13.6402C29.01 14.6904 29.6 16.1148 29.6 17.6C29.6 19.0852 29.01 20.5096 27.9598 21.5598C26.9096 22.61 25.4852 23.2 24 23.2C22.5148 23.2 21.0904 22.61 20.0402 21.5598C18.99 20.5096 18.4 19.0852 18.4 17.6C18.4 16.1148 18.99 14.6904 20.0402 13.6402C21.0904 12.59 22.5148 12 24 12ZM24 13.6C22.9391 13.6 21.9217 14.0214 21.1716 14.7716C20.4214 15.5217 20 16.5391 20 17.6C20 18.6609 20.4214 19.6783 21.1716 20.4284C21.9217 21.1786 22.9391 21.6 24 21.6C25.0609 21.6 26.0783 21.1786 26.8284 20.4284C27.5786 19.6783 28 18.6609 28 17.6C28 16.5391 27.5786 15.5217 26.8284 14.7716C26.0783 14.0214 25.0609 13.6 24 13.6Z" fill="black"/>
</svg>
